<?xml version="1.0" encoding="utf-8"?>
<!-- Generator: Adobe Illustrator 21.0.0, SVG Export Plug-In . SVG Version: 6.00 Build 0)  -->
<svg version="1.1" id="图层_1" xmlns="http://www.w3.org/2000/svg" xmlns:xlink="http://www.w3.org/1999/xlink" x="0px" y="0px"
	 viewBox="0 0 1655 630" style="enable-background:new 0 0 1655 630;" xml:space="preserve">
<style type="text/css">
	.st0{opacity:0.9;fill:none;stroke:#D9D9D9;stroke-miterlimit:10;}
	.st1{opacity:0.6;fill:none;stroke:#D9D9D9;stroke-miterlimit:10;}
	.st2{opacity:0.3;fill:none;stroke:#D9D9D9;stroke-miterlimit:10;}
	.st3{opacity:0.2;fill:none;stroke:#D9D9D9;stroke-miterlimit:10;}
	.st4{opacity:4.000000e-02;fill:none;stroke:#D9D9D9;stroke-miterlimit:10;}
	.st5{fill:#FFFFFF;stroke:#D9D9D9;stroke-width:2;stroke-miterlimit:10;}
	.st6{fill:none;stroke:#D9D9D9;stroke-width:2;stroke-miterlimit:10;}
	.st7{fill:#F7F7F7;stroke:#D9D9D9;stroke-width:2.0402;stroke-miterlimit:10;}
	.st8{fill:#F7F7F7;stroke:#D9D9D9;stroke-width:2;stroke-miterlimit:10;}
	.st9{fill:#FFFFFF;stroke:#D9D9D9;stroke-width:2.0056;stroke-miterlimit:10;}
	.st10{fill:#FFFFFF;stroke:#D9D9D9;stroke-width:1.5638;stroke-miterlimit:10;}
	.st11{fill:none;stroke:#D9D9D9;stroke-width:1.5638;stroke-miterlimit:10;}
	.st12{fill:#D9D9D9;}
	.st13{fill:#F7F7F7;stroke:#D9D9D9;stroke-width:1.5638;stroke-miterlimit:10;}
	.st14{fill:none;stroke:#D9D9D9;stroke-width:3;stroke-miterlimit:10;}
	.st15{fill:none;stroke:#D9D9D9;stroke-width:2.0038;stroke-miterlimit:10;}
	.st16{fill:none;stroke:#D9D9D9;stroke-width:1.8038;stroke-miterlimit:10;}
	.st17{fill:none;stroke:#D9D9D9;stroke-width:2.0147;stroke-miterlimit:10;}
	.st18{fill:none;stroke:#D9D9D9;stroke-width:2.0089;stroke-miterlimit:10;}
	.st19{fill:none;stroke:#D9D9D9;stroke-width:2.1201;stroke-miterlimit:10;}
	.st20{fill:none;stroke:#D9D9D9;stroke-width:2.0307;stroke-miterlimit:10;}
	.st21{fill:none;stroke:#D9D9D9;stroke-width:1.7294;stroke-miterlimit:10;}
	.st22{fill:none;stroke:#D9D9D9;stroke-width:1.7284;stroke-miterlimit:10;}
	.st23{fill:none;stroke:#D9D9D9;stroke-width:2.0149;stroke-miterlimit:10;}
	.st24{fill:none;stroke:#D9D9D9;stroke-width:1.8239;stroke-miterlimit:10;}
	.st25{font-family:'FZLTTHK--GBK1-0';}
	.st26{font-size:12px;}
</style>
<g>
	<g>
		<circle class="st0" cx="1432.6" cy="124.7" r="9.5"/>
		<circle class="st1" cx="1432.6" cy="124.7" r="26.6"/>
		<circle class="st2" cx="1432.6" cy="124.7" r="51.3"/>
		<circle class="st3" cx="1432.6" cy="124.7" r="83.6"/>
	</g>
	<g>
		<circle class="st0" cx="658.7" cy="110.6" r="9.5"/>
		<circle class="st1" cx="658.7" cy="110.6" r="26.6"/>
		<circle class="st2" cx="658.7" cy="110.6" r="51.3"/>
		<circle class="st3" cx="658.7" cy="110.6" r="83.6"/>
	</g>
	<circle class="st4" cx="1432.6" cy="124.7" r="123.4"/>
	<g>
		<path class="st5" d="M1653.9,232.6c-2.7-2.7-6.4-4.4-10.5-4.4c-1.6,0-3.1,0.3-4.5,0.7c-3-1.9-6.5-3.1-10.3-3.1
			c-8.4,0-15.5,5.5-17.9,13.2c-2-0.9-4.1-1.5-6.4-1.5c-2.2,0-4.2,0.5-6,1.3c-2.9-7.1-9.9-12.2-18-12.2c-10.7,0-19.4,8.7-19.4,19.4"
			/>
		<line class="st5" x1="1561.6" y1="246.1" x2="1539.9" y2="246.1"/>
	</g>
	<g>
		<path class="st5" d="M250.9,254.5c-2.7-2.7-6.4-4.4-10.5-4.4c-1.6,0-3.1,0.3-4.5,0.7c-3-1.9-6.5-3.1-10.3-3.1
			c-8.4,0-15.5,5.5-17.9,13.2c-2-0.9-4.1-1.5-6.4-1.5c-2.2,0-4.2,0.5-6,1.3c-2.9-7.1-9.9-12.2-18-12.2c-10.7,0-19.4,8.7-19.4,19.4"
			/>
		<line class="st5" x1="158.6" y1="268" x2="137" y2="268"/>
	</g>
	<g>
		<path class="st6" d="M1244.4,178.6c0-3.9-3.2-7.1-7.1-7.1c-0.2,0-0.5,0-0.7,0c-0.4-3.5-3.4-6.2-7-6.2c-3.6,0-6.6,2.7-7.1,6.3
			c-0.9-0.5-2-0.9-3.1-0.9c-2.4,0-4.4,1.3-5.5,3.2c-1.7-1.5-3.9-2.5-6.4-2.5c-5.3,0-9.6,4.3-9.6,9.6"/>
		<line class="st6" x1="1243.5" y1="178.6" x2="1257.2" y2="178.6"/>
		<line class="st6" x1="1190.2" y1="181.2" x2="1198.9" y2="181.2"/>
	</g>
	<rect x="698" y="472.1" class="st7" width="73.9" height="51.3"/>
	<path class="st8" d="M771,476.1h-69.2c-1.9,0-3.4-1.5-3.4-3.4v-15.1c0-1.9,1.5-3.4,3.4-3.4H771c1.9,0,3.4,1.5,3.4,3.4v15.1
		C774.4,474.6,772.9,476.1,771,476.1z"/>
	<rect x="698" y="454.2" class="st9" width="70.1" height="21.9"/>
	<path class="st10" d="M768.1,461.1h-47.5c-2.2,0-4,1.8-4,4c0,2.2,1.8,4,4,4h47.5V461.1z"/>
	<line class="st11" x1="716.6" y1="465.2" x2="698.4" y2="465.2"/>
	<line class="st11" x1="703.2" y1="465.1" x2="703.2" y2="461.6"/>
	<line class="st11" x1="707.8" y1="465.1" x2="707.8" y2="461.6"/>
	<line class="st11" x1="712.3" y1="465.1" x2="712.3" y2="461.6"/>
	<path class="st12" d="M723.4,466.8L723.4,466.8c-0.9,0-1.7-0.7-1.7-1.7l0,0c0-0.9,0.7-1.7,1.7-1.7l0,0c0.9,0,1.7,0.7,1.7,1.7l0,0
		C725.1,466.1,724.3,466.8,723.4,466.8z"/>
	<path class="st12" d="M729.6,466.8L729.6,466.8c-0.9,0-1.7-0.7-1.7-1.7l0,0c0-0.9,0.7-1.7,1.7-1.7l0,0c0.9,0,1.7,0.7,1.7,1.7l0,0
		C731.3,466.1,730.5,466.8,729.6,466.8z"/>
	<path class="st12" d="M735.8,466.8L735.8,466.8c-0.9,0-1.7-0.7-1.7-1.7l0,0c0-0.9,0.7-1.7,1.7-1.7l0,0c0.9,0,1.7,0.7,1.7,1.7l0,0
		C737.5,466.1,736.8,466.8,735.8,466.8z"/>
	<path class="st12" d="M742.1,466.8L742.1,466.8c-0.9,0-1.7-0.7-1.7-1.7l0,0c0-0.9,0.7-1.7,1.7-1.7l0,0c0.9,0,1.7,0.7,1.7,1.7l0,0
		C743.8,466.1,743,466.8,742.1,466.8z"/>
	<path class="st12" d="M748.3,466.8L748.3,466.8c-0.9,0-1.7-0.7-1.7-1.7l0,0c0-0.9,0.7-1.7,1.7-1.7l0,0c0.9,0,1.7,0.7,1.7,1.7l0,0
		C750,466.1,749.2,466.8,748.3,466.8z"/>
	<path class="st12" d="M754.5,466.8L754.5,466.8c-0.9,0-1.7-0.7-1.7-1.7l0,0c0-0.9,0.7-1.7,1.7-1.7l0,0c0.9,0,1.7,0.7,1.7,1.7l0,0
		C756.2,466.1,755.5,466.8,754.5,466.8z"/>
	<path class="st12" d="M760.8,466.8L760.8,466.8c-0.9,0-1.7-0.7-1.7-1.7l0,0c0-0.9,0.7-1.7,1.7-1.7l0,0c0.9,0,1.7,0.7,1.7,1.7l0,0
		C762.4,466.1,761.7,466.8,760.8,466.8z"/>
	<path class="st8" d="M771,503.2h-69.2c-1.9,0-3.4-1.5-3.4-3.4v-15.1c0-1.9,1.5-3.4,3.4-3.4H771c1.9,0,3.4,1.5,3.4,3.4v15.1
		C774.4,501.7,772.9,503.2,771,503.2z"/>
	<path class="st9" d="M764.1,503.2H698v-21.9h66.1c2.2,0,4,1.8,4,4v13.9C768.1,501.4,766.3,503.2,764.1,503.2z"/>
	<path class="st10" d="M768.1,488.3h-47.5c-2.2,0-4,1.8-4,4c0,2.2,1.8,4,4,4h47.5V488.3z"/>
	<line class="st11" x1="716.6" y1="492.3" x2="698.4" y2="492.3"/>
	<line class="st11" x1="703.2" y1="492.2" x2="703.2" y2="488.8"/>
	<line class="st11" x1="707.8" y1="492.2" x2="707.8" y2="488.8"/>
	<line class="st11" x1="712.3" y1="492.2" x2="712.3" y2="488.8"/>
	<path class="st12" d="M723.4,494L723.4,494c-0.9,0-1.7-0.7-1.7-1.7l0,0c0-0.9,0.7-1.7,1.7-1.7l0,0c0.9,0,1.7,0.7,1.7,1.7l0,0
		C725.1,493.2,724.3,494,723.4,494z"/>
	<path class="st12" d="M729.6,494L729.6,494c-0.9,0-1.7-0.7-1.7-1.7l0,0c0-0.9,0.7-1.7,1.7-1.7l0,0c0.9,0,1.7,0.7,1.7,1.7l0,0
		C731.3,493.2,730.5,494,729.6,494z"/>
	<path class="st12" d="M735.8,494L735.8,494c-0.9,0-1.7-0.7-1.7-1.7l0,0c0-0.9,0.7-1.7,1.7-1.7l0,0c0.9,0,1.7,0.7,1.7,1.7l0,0
		C737.5,493.2,736.8,494,735.8,494z"/>
	<path class="st12" d="M742.1,494L742.1,494c-0.9,0-1.7-0.7-1.7-1.7l0,0c0-0.9,0.7-1.7,1.7-1.7l0,0c0.9,0,1.7,0.7,1.7,1.7l0,0
		C743.8,493.2,743,494,742.1,494z"/>
	<path class="st12" d="M748.3,494L748.3,494c-0.9,0-1.7-0.7-1.7-1.7l0,0c0-0.9,0.7-1.7,1.7-1.7l0,0c0.9,0,1.7,0.7,1.7,1.7l0,0
		C750,493.2,749.2,494,748.3,494z"/>
	<path class="st12" d="M754.5,494L754.5,494c-0.9,0-1.7-0.7-1.7-1.7l0,0c0-0.9,0.7-1.7,1.7-1.7l0,0c0.9,0,1.7,0.7,1.7,1.7l0,0
		C756.2,493.2,755.5,494,754.5,494z"/>
	<path class="st12" d="M760.8,494L760.8,494c-0.9,0-1.7-0.7-1.7-1.7l0,0c0-0.9,0.7-1.7,1.7-1.7l0,0c0.9,0,1.7,0.7,1.7,1.7l0,0
		C762.4,493.2,761.7,494,760.8,494z"/>
	<path class="st8" d="M771,530.4h-69.2c-1.9,0-3.4-1.5-3.4-3.4v-15.1c0-1.9,1.5-3.4,3.4-3.4H771c1.9,0,3.4,1.5,3.4,3.4V527
		C774.4,528.8,772.9,530.4,771,530.4z"/>
	<path class="st9" d="M764.1,530.4H698v-21.9h66.1c2.2,0,4,1.8,4,4v13.9C768.1,528.6,766.3,530.4,764.1,530.4z"/>
	<path class="st10" d="M768.1,515.4h-47.5c-2.2,0-4,1.8-4,4s1.8,4,4,4h47.5V515.4z"/>
	<line class="st11" x1="716.6" y1="519.4" x2="698.4" y2="519.4"/>
	<line class="st11" x1="703.2" y1="519.4" x2="703.2" y2="515.9"/>
	<line class="st11" x1="707.8" y1="519.4" x2="707.8" y2="515.9"/>
	<line class="st11" x1="712.3" y1="519.4" x2="712.3" y2="515.9"/>
	<path class="st12" d="M723.4,521.1L723.4,521.1c-0.9,0-1.7-0.7-1.7-1.7l0,0c0-0.9,0.7-1.7,1.7-1.7l0,0c0.9,0,1.7,0.7,1.7,1.7l0,0
		C725.1,520.3,724.3,521.1,723.4,521.1z"/>
	<path class="st12" d="M729.6,521.1L729.6,521.1c-0.9,0-1.7-0.7-1.7-1.7l0,0c0-0.9,0.7-1.7,1.7-1.7l0,0c0.9,0,1.7,0.7,1.7,1.7l0,0
		C731.3,520.3,730.5,521.1,729.6,521.1z"/>
	<path class="st12" d="M735.8,521.1L735.8,521.1c-0.9,0-1.7-0.7-1.7-1.7l0,0c0-0.9,0.7-1.7,1.7-1.7l0,0c0.9,0,1.7,0.7,1.7,1.7l0,0
		C737.5,520.3,736.8,521.1,735.8,521.1z"/>
	<path class="st12" d="M742.1,521.1L742.1,521.1c-0.9,0-1.7-0.7-1.7-1.7l0,0c0-0.9,0.7-1.7,1.7-1.7l0,0c0.9,0,1.7,0.7,1.7,1.7l0,0
		C743.8,520.3,743,521.1,742.1,521.1z"/>
	<path class="st12" d="M748.3,521.1L748.3,521.1c-0.9,0-1.7-0.7-1.7-1.7l0,0c0-0.9,0.7-1.7,1.7-1.7l0,0c0.9,0,1.7,0.7,1.7,1.7l0,0
		C750,520.3,749.2,521.1,748.3,521.1z"/>
	<path class="st12" d="M754.5,521.1L754.5,521.1c-0.9,0-1.7-0.7-1.7-1.7l0,0c0-0.9,0.7-1.7,1.7-1.7l0,0c0.9,0,1.7,0.7,1.7,1.7l0,0
		C756.2,520.3,755.5,521.1,754.5,521.1z"/>
	<path class="st12" d="M760.8,521.1L760.8,521.1c-0.9,0-1.7-0.7-1.7-1.7l0,0c0-0.9,0.7-1.7,1.7-1.7l0,0c0.9,0,1.7,0.7,1.7,1.7l0,0
		C762.4,520.3,761.7,521.1,760.8,521.1z"/>
	<rect x="964" y="481.9" class="st13" width="83.4" height="60.2"/>
	<path class="st13" d="M1045.9,486.6h-80.4c-2.4,0-4.4-2-4.4-4.4v-16.9c0-2.4,2-4.4,4.4-4.4h80.4c2.4,0,4.4,2,4.4,4.4v16.9
		C1050.3,484.6,1048.3,486.6,1045.9,486.6z"/>
	<path class="st10" d="M1038.5,486.6h-73c-2.4,0-4.4-2-4.4-4.4v-16.9c0-2.4,2-4.4,4.4-4.4h73c2.4,0,4.4,2,4.4,4.4v16.9
		C1042.9,484.6,1040.9,486.6,1038.5,486.6z"/>
	<path class="st10" d="M1042.9,469h-55.8c-2.6,0-4.7,2.1-4.7,4.7s2.1,4.7,4.7,4.7h55.8V469z"/>
	<line class="st11" x1="982.4" y1="473.8" x2="961.1" y2="473.8"/>
	<line class="st11" x1="966.7" y1="473.7" x2="966.7" y2="469.6"/>
	<line class="st11" x1="972.1" y1="473.7" x2="972.1" y2="469.6"/>
	<line class="st11" x1="977.5" y1="473.7" x2="977.5" y2="469.6"/>
	<path class="st12" d="M990.4,475.7L990.4,475.7c-1.1,0-2-0.9-2-2l0,0c0-1.1,0.9-2,2-2l0,0c1.1,0,2,0.9,2,2l0,0
		C992.4,474.9,991.5,475.7,990.4,475.7z"/>
	<path class="st12" d="M997.7,475.7L997.7,475.7c-1.1,0-2-0.9-2-2l0,0c0-1.1,0.9-2,2-2l0,0c1.1,0,2,0.9,2,2l0,0
		C999.7,474.9,998.8,475.7,997.7,475.7z"/>
	<path class="st12" d="M1005,475.7L1005,475.7c-1.1,0-2-0.9-2-2l0,0c0-1.1,0.9-2,2-2l0,0c1.1,0,2,0.9,2,2l0,0
		C1007,474.9,1006.1,475.7,1005,475.7z"/>
	<rect x="1010.4" y="471.8" class="st12" width="3.9" height="3.9"/>
	<rect x="1017.7" y="471.8" class="st12" width="3.9" height="3.9"/>
	<rect x="1025" y="471.8" class="st12" width="3.9" height="3.9"/>
	<rect x="1032.3" y="471.8" class="st12" width="3.9" height="3.9"/>
	<path class="st13" d="M1045.9,518.5h-80.4c-2.4,0-4.4-2-4.4-4.4v-16.9c0-2.4,2-4.4,4.4-4.4h80.4c2.4,0,4.4,2,4.4,4.4v16.9
		C1050.3,516.5,1048.3,518.5,1045.9,518.5z"/>
	<path class="st10" d="M1038.5,518.5h-73c-2.4,0-4.4-2-4.4-4.4v-16.9c0-2.4,2-4.4,4.4-4.4h73c2.4,0,4.4,2,4.4,4.4v16.9
		C1042.9,516.5,1040.9,518.5,1038.5,518.5z"/>
	<path class="st10" d="M1042.9,500.9h-55.8c-2.6,0-4.7,2.1-4.7,4.7c0,2.6,2.1,4.7,4.7,4.7h55.8V500.9z"/>
	<line class="st11" x1="982.4" y1="505.6" x2="961.1" y2="505.6"/>
	<line class="st11" x1="966.7" y1="505.6" x2="966.7" y2="501.5"/>
	<line class="st11" x1="972.1" y1="505.6" x2="972.1" y2="501.5"/>
	<line class="st11" x1="977.5" y1="505.6" x2="977.5" y2="501.5"/>
	<path class="st12" d="M990.4,507.6L990.4,507.6c-1.1,0-2-0.9-2-2v0c0-1.1,0.9-2,2-2l0,0c1.1,0,2,0.9,2,2v0
		C992.4,506.7,991.5,507.6,990.4,507.6z"/>
	<path class="st12" d="M997.7,507.6L997.7,507.6c-1.1,0-2-0.9-2-2v0c0-1.1,0.9-2,2-2l0,0c1.1,0,2,0.9,2,2v0
		C999.7,506.7,998.8,507.6,997.7,507.6z"/>
	<path class="st12" d="M1005,507.6L1005,507.6c-1.1,0-2-0.9-2-2v0c0-1.1,0.9-2,2-2l0,0c1.1,0,2,0.9,2,2v0
		C1007,506.7,1006.1,507.6,1005,507.6z"/>
	<rect x="1010.4" y="503.6" class="st12" width="3.9" height="3.9"/>
	<rect x="1017.7" y="503.6" class="st12" width="3.9" height="3.9"/>
	<rect x="1025" y="503.6" class="st12" width="3.9" height="3.9"/>
	<rect x="1032.3" y="503.6" class="st12" width="3.9" height="3.9"/>
	<path class="st13" d="M1045.9,550.3h-80.4c-2.4,0-4.4-2-4.4-4.4V529c0-2.4,2-4.4,4.4-4.4h80.4c2.4,0,4.4,2,4.4,4.4v16.9
		C1050.3,548.3,1048.3,550.3,1045.9,550.3z"/>
	<path class="st10" d="M1038.5,550.3h-73c-2.4,0-4.4-2-4.4-4.4V529c0-2.4,2-4.4,4.4-4.4h73c2.4,0,4.4,2,4.4,4.4v16.9
		C1042.9,548.3,1040.9,550.3,1038.5,550.3z"/>
	<path class="st10" d="M1042.9,532.7h-55.8c-2.6,0-4.7,2.1-4.7,4.7s2.1,4.7,4.7,4.7h55.8V532.7z"/>
	<line class="st11" x1="982.4" y1="537.4" x2="961.1" y2="537.4"/>
	<line class="st11" x1="966.7" y1="537.4" x2="966.7" y2="533.3"/>
	<line class="st11" x1="972.1" y1="537.4" x2="972.1" y2="533.3"/>
	<line class="st11" x1="977.5" y1="537.4" x2="977.5" y2="533.3"/>
	<path class="st12" d="M990.4,539.4L990.4,539.4c-1.1,0-2-0.9-2-2l0,0c0-1.1,0.9-2,2-2l0,0c1.1,0,2,0.9,2,2l0,0
		C992.4,538.5,991.5,539.4,990.4,539.4z"/>
	<path class="st12" d="M997.7,539.4L997.7,539.4c-1.1,0-2-0.9-2-2l0,0c0-1.1,0.9-2,2-2l0,0c1.1,0,2,0.9,2,2l0,0
		C999.7,538.5,998.8,539.4,997.7,539.4z"/>
	<path class="st12" d="M1005,539.4L1005,539.4c-1.1,0-2-0.9-2-2l0,0c0-1.1,0.9-2,2-2l0,0c1.1,0,2,0.9,2,2l0,0
		C1007,538.5,1006.1,539.4,1005,539.4z"/>
	<rect x="1010.4" y="535.5" class="st12" width="3.9" height="3.9"/>
	<rect x="1017.7" y="535.5" class="st12" width="3.9" height="3.9"/>
	<rect x="1025" y="535.5" class="st12" width="3.9" height="3.9"/>
	<rect x="1032.3" y="535.5" class="st12" width="3.9" height="3.9"/>
	<rect x="1010.8" y="470.5" class="st13" width="97.4" height="70.3"/>
	<path class="st13" d="M1107.2,475.9h-95.4c-2.4,0-4.4-2-4.4-4.4v-21.2c0-2.4,2-4.4,4.4-4.4h95.4c2.4,0,4.4,2,4.4,4.4v21.2
		C1111.6,474,1109.6,475.9,1107.2,475.9z"/>
	<path class="st10" d="M1098.6,475.9h-86.8c-2.4,0-4.4-2-4.4-4.4v-21.2c0-2.4,2-4.4,4.4-4.4h86.8c2.4,0,4.4,2,4.4,4.4v21.2
		C1103,474,1101,475.9,1098.6,475.9z"/>
	<path class="st10" d="M1103,455.4h-65.1c-3,0-5.5,2.5-5.5,5.5c0,3,2.5,5.5,5.5,5.5h65.1V455.4z"/>
	<line class="st11" x1="1032.4" y1="460.9" x2="1007.4" y2="460.9"/>
	<line class="st11" x1="1014" y1="460.9" x2="1014" y2="456.1"/>
	<line class="st11" x1="1020.3" y1="460.9" x2="1020.3" y2="456.1"/>
	<line class="st11" x1="1026.5" y1="460.9" x2="1026.5" y2="456.1"/>
	<path class="st12" d="M1041.7,463.2L1041.7,463.2c-1.3,0-2.3-1-2.3-2.3v0c0-1.3,1-2.3,2.3-2.3l0,0c1.3,0,2.3,1,2.3,2.3v0
		C1044,462.2,1042.9,463.2,1041.7,463.2z"/>
	<path class="st12" d="M1050.2,463.2L1050.2,463.2c-1.3,0-2.3-1-2.3-2.3v0c0-1.3,1-2.3,2.3-2.3l0,0c1.3,0,2.3,1,2.3,2.3v0
		C1052.5,462.2,1051.5,463.2,1050.2,463.2z"/>
	<path class="st12" d="M1058.7,463.2L1058.7,463.2c-1.3,0-2.3-1-2.3-2.3v0c0-1.3,1-2.3,2.3-2.3l0,0c1.3,0,2.3,1,2.3,2.3v0
		C1061,462.2,1060,463.2,1058.7,463.2z"/>
	<path class="st12" d="M1067.3,463.2L1067.3,463.2c-1.3,0-2.3-1-2.3-2.3v0c0-1.3,1-2.3,2.3-2.3l0,0c1.3,0,2.3,1,2.3,2.3v0
		C1069.6,462.2,1068.5,463.2,1067.3,463.2z"/>
	<path class="st12" d="M1075.8,463.2L1075.8,463.2c-1.3,0-2.3-1-2.3-2.3v0c0-1.3,1-2.3,2.3-2.3l0,0c1.3,0,2.3,1,2.3,2.3v0
		C1078.1,462.2,1077.1,463.2,1075.8,463.2z"/>
	<path class="st12" d="M1084.3,463.2L1084.3,463.2c-1.3,0-2.3-1-2.3-2.3v0c0-1.3,1-2.3,2.3-2.3l0,0c1.3,0,2.3,1,2.3,2.3v0
		C1086.6,462.2,1085.6,463.2,1084.3,463.2z"/>
	<path class="st12" d="M1092.9,463.2L1092.9,463.2c-1.3,0-2.3-1-2.3-2.3v0c0-1.3,1-2.3,2.3-2.3l0,0c1.3,0,2.3,1,2.3,2.3v0
		C1095.2,462.2,1094.2,463.2,1092.9,463.2z"/>
	<path class="st13" d="M1107.2,513.1h-95.4c-2.4,0-4.4-2-4.4-4.4v-21.2c0-2.4,2-4.4,4.4-4.4h95.4c2.4,0,4.4,2,4.4,4.4v21.2
		C1111.6,511.1,1109.6,513.1,1107.2,513.1z"/>
	<path class="st10" d="M1098.6,513.1h-86.8c-2.4,0-4.4-2-4.4-4.4v-21.2c0-2.4,2-4.4,4.4-4.4h86.8c2.4,0,4.4,2,4.4,4.4v21.2
		C1103,511.1,1101,513.1,1098.6,513.1z"/>
	<path class="st10" d="M1103,492.6h-65.1c-3,0-5.5,2.5-5.5,5.5c0,3,2.5,5.5,5.5,5.5h65.1V492.6z"/>
	<line class="st11" x1="1032.4" y1="498.1" x2="1007.4" y2="498.1"/>
	<line class="st11" x1="1014" y1="498" x2="1014" y2="493.3"/>
	<line class="st11" x1="1020.3" y1="498" x2="1020.3" y2="493.3"/>
	<line class="st11" x1="1026.5" y1="498" x2="1026.5" y2="493.3"/>
	<path class="st12" d="M1041.7,500.4L1041.7,500.4c-1.3,0-2.3-1-2.3-2.3l0,0c0-1.3,1-2.3,2.3-2.3l0,0c1.3,0,2.3,1,2.3,2.3l0,0
		C1044,499.4,1042.9,500.4,1041.7,500.4z"/>
	<path class="st12" d="M1050.2,500.4L1050.2,500.4c-1.3,0-2.3-1-2.3-2.3l0,0c0-1.3,1-2.3,2.3-2.3l0,0c1.3,0,2.3,1,2.3,2.3l0,0
		C1052.5,499.4,1051.5,500.4,1050.2,500.4z"/>
	<path class="st12" d="M1058.7,500.4L1058.7,500.4c-1.3,0-2.3-1-2.3-2.3l0,0c0-1.3,1-2.3,2.3-2.3l0,0c1.3,0,2.3,1,2.3,2.3l0,0
		C1061,499.4,1060,500.4,1058.7,500.4z"/>
	<path class="st12" d="M1067.3,500.4L1067.3,500.4c-1.3,0-2.3-1-2.3-2.3l0,0c0-1.3,1-2.3,2.3-2.3l0,0c1.3,0,2.3,1,2.3,2.3l0,0
		C1069.6,499.4,1068.5,500.4,1067.3,500.4z"/>
	<path class="st12" d="M1075.8,500.4L1075.8,500.4c-1.3,0-2.3-1-2.3-2.3l0,0c0-1.3,1-2.3,2.3-2.3l0,0c1.3,0,2.3,1,2.3,2.3l0,0
		C1078.1,499.4,1077.1,500.4,1075.8,500.4z"/>
	<path class="st12" d="M1084.3,500.4L1084.3,500.4c-1.3,0-2.3-1-2.3-2.3l0,0c0-1.3,1-2.3,2.3-2.3l0,0c1.3,0,2.3,1,2.3,2.3l0,0
		C1086.6,499.4,1085.6,500.4,1084.3,500.4z"/>
	<path class="st12" d="M1092.9,500.4L1092.9,500.4c-1.3,0-2.3-1-2.3-2.3l0,0c0-1.3,1-2.3,2.3-2.3l0,0c1.3,0,2.3,1,2.3,2.3l0,0
		C1095.2,499.4,1094.2,500.4,1092.9,500.4z"/>
	<path class="st13" d="M1107.2,550.3h-95.4c-2.4,0-4.4-2-4.4-4.4v-21.2c0-2.4,2-4.4,4.4-4.4h95.4c2.4,0,4.4,2,4.4,4.4v21.2
		C1111.6,548.3,1109.6,550.3,1107.2,550.3z"/>
	<path class="st10" d="M1098.6,550.3h-86.8c-2.4,0-4.4-2-4.4-4.4v-21.2c0-2.4,2-4.4,4.4-4.4h86.8c2.4,0,4.4,2,4.4,4.4v21.2
		C1103,548.3,1101,550.3,1098.6,550.3z"/>
	<path class="st10" d="M1103,529.8h-65.1c-3,0-5.5,2.5-5.5,5.5s2.5,5.5,5.5,5.5h65.1V529.8z"/>
	<line class="st11" x1="1032.4" y1="535.3" x2="1007.4" y2="535.3"/>
	<line class="st11" x1="1014" y1="535.2" x2="1014" y2="530.4"/>
	<line class="st11" x1="1020.3" y1="535.2" x2="1020.3" y2="530.4"/>
	<line class="st11" x1="1026.5" y1="535.2" x2="1026.5" y2="530.4"/>
	<path class="st12" d="M1041.7,537.6L1041.7,537.6c-1.3,0-2.3-1-2.3-2.3l0,0c0-1.3,1-2.3,2.3-2.3l0,0c1.3,0,2.3,1,2.3,2.3l0,0
		C1044,536.6,1042.9,537.6,1041.7,537.6z"/>
	<path class="st12" d="M1050.2,537.6L1050.2,537.6c-1.3,0-2.3-1-2.3-2.3l0,0c0-1.3,1-2.3,2.3-2.3l0,0c1.3,0,2.3,1,2.3,2.3l0,0
		C1052.5,536.6,1051.5,537.6,1050.2,537.6z"/>
	<path class="st12" d="M1058.7,537.6L1058.7,537.6c-1.3,0-2.3-1-2.3-2.3l0,0c0-1.3,1-2.3,2.3-2.3l0,0c1.3,0,2.3,1,2.3,2.3l0,0
		C1061,536.6,1060,537.6,1058.7,537.6z"/>
	<path class="st12" d="M1067.3,537.6L1067.3,537.6c-1.3,0-2.3-1-2.3-2.3l0,0c0-1.3,1-2.3,2.3-2.3l0,0c1.3,0,2.3,1,2.3,2.3l0,0
		C1069.6,536.6,1068.5,537.6,1067.3,537.6z"/>
	<path class="st12" d="M1075.8,537.6L1075.8,537.6c-1.3,0-2.3-1-2.3-2.3l0,0c0-1.3,1-2.3,2.3-2.3l0,0c1.3,0,2.3,1,2.3,2.3l0,0
		C1078.1,536.6,1077.1,537.6,1075.8,537.6z"/>
	<path class="st12" d="M1084.3,537.6L1084.3,537.6c-1.3,0-2.3-1-2.3-2.3l0,0c0-1.3,1-2.3,2.3-2.3l0,0c1.3,0,2.3,1,2.3,2.3l0,0
		C1086.6,536.6,1085.6,537.6,1084.3,537.6z"/>
	<path class="st12" d="M1092.9,537.6L1092.9,537.6c-1.3,0-2.3-1-2.3-2.3l0,0c0-1.3,1-2.3,2.3-2.3l0,0c1.3,0,2.3,1,2.3,2.3l0,0
		C1095.2,536.6,1094.2,537.6,1092.9,537.6z"/>
	<g>
		<line class="st14" x1="137.1" y1="331.5" x2="170.3" y2="331.5"/>
		<line class="st14" x1="153.7" y1="314.9" x2="153.7" y2="348.1"/>
	</g>
	<g>
		<path class="st6" d="M390.8,242.5h-89.3c-2.1,0-3.9-1.7-3.9-3.9v-23.5c0-2.1,1.7-3.9,3.9-3.9h89.3c2.1,0,3.9,1.7,3.9,3.9v23.5
			C394.7,240.7,392.9,242.5,390.8,242.5z"/>
		<path class="st6" d="M381.3,242.5h-79.8c-2.1,0-3.9-1.7-3.9-3.9v-23.5c0-2.1,1.7-3.9,3.9-3.9h79.8c2.1,0,3.9,1.7,3.9,3.9v23.5
			C385.2,240.7,383.4,242.5,381.3,242.5z"/>
		<circle class="st6" cx="368.7" cy="225.1" r="4.8"/>
		<path class="st12" d="M311,224.1L311,224.1c-1,0-1.8-0.8-1.8-1.8v0c0-1,0.8-1.8,1.8-1.8h0c1,0,1.8,0.8,1.8,1.8v0
			C312.8,223.3,312,224.1,311,224.1z"/>
		<path class="st12" d="M311,230.3L311,230.3c-1,0-1.8-0.8-1.8-1.8l0,0c0-1,0.8-1.8,1.8-1.8h0c1,0,1.8,0.8,1.8,1.8l0,0
			C312.8,229.5,312,230.3,311,230.3z"/>
		<path class="st12" d="M317.1,224.1L317.1,224.1c-1,0-1.8-0.8-1.8-1.8v0c0-1,0.8-1.8,1.8-1.8l0,0c1,0,1.8,0.8,1.8,1.8v0
			C319,223.3,318.2,224.1,317.1,224.1z"/>
		<path class="st12" d="M317.1,230.3L317.1,230.3c-1,0-1.8-0.8-1.8-1.8l0,0c0-1,0.8-1.8,1.8-1.8l0,0c1,0,1.8,0.8,1.8,1.8l0,0
			C319,229.5,318.2,230.3,317.1,230.3z"/>
		<path class="st12" d="M323.3,224.1L323.3,224.1c-1,0-1.8-0.8-1.8-1.8v0c0-1,0.8-1.8,1.8-1.8l0,0c1,0,1.8,0.8,1.8,1.8v0
			C325.1,223.3,324.3,224.1,323.3,224.1z"/>
		<path class="st12" d="M323.3,230.3L323.3,230.3c-1,0-1.8-0.8-1.8-1.8l0,0c0-1,0.8-1.8,1.8-1.8l0,0c1,0,1.8,0.8,1.8,1.8l0,0
			C325.1,229.5,324.3,230.3,323.3,230.3z"/>
		<path class="st12" d="M329.4,224.1L329.4,224.1c-1,0-1.8-0.8-1.8-1.8v0c0-1,0.8-1.8,1.8-1.8l0,0c1,0,1.8,0.8,1.8,1.8v0
			C331.3,223.3,330.4,224.1,329.4,224.1z"/>
		<path class="st12" d="M329.4,230.3L329.4,230.3c-1,0-1.8-0.8-1.8-1.8l0,0c0-1,0.8-1.8,1.8-1.8l0,0c1,0,1.8,0.8,1.8,1.8l0,0
			C331.3,229.5,330.4,230.3,329.4,230.3z"/>
		<path class="st12" d="M335.5,224.1L335.5,224.1c-1,0-1.8-0.8-1.8-1.8v0c0-1,0.8-1.8,1.8-1.8l0,0c1,0,1.8,0.8,1.8,1.8v0
			C337.4,223.3,336.6,224.1,335.5,224.1z"/>
		<path class="st12" d="M335.5,230.3L335.5,230.3c-1,0-1.8-0.8-1.8-1.8l0,0c0-1,0.8-1.8,1.8-1.8l0,0c1,0,1.8,0.8,1.8,1.8l0,0
			C337.4,229.5,336.6,230.3,335.5,230.3z"/>
		<path class="st12" d="M341.7,224.1L341.7,224.1c-1,0-1.8-0.8-1.8-1.8v0c0-1,0.8-1.8,1.8-1.8h0c1,0,1.8,0.8,1.8,1.8v0
			C343.5,223.3,342.7,224.1,341.7,224.1z"/>
		<path class="st12" d="M341.7,230.3L341.7,230.3c-1,0-1.8-0.8-1.8-1.8l0,0c0-1,0.8-1.8,1.8-1.8h0c1,0,1.8,0.8,1.8,1.8l0,0
			C343.5,229.5,342.7,230.3,341.7,230.3z"/>
		<path class="st12" d="M347.8,224.1L347.8,224.1c-1,0-1.8-0.8-1.8-1.8v0c0-1,0.8-1.8,1.8-1.8l0,0c1,0,1.8,0.8,1.8,1.8v0
			C349.7,223.3,348.8,224.1,347.8,224.1z"/>
		<path class="st12" d="M347.8,230.3L347.8,230.3c-1,0-1.8-0.8-1.8-1.8l0,0c0-1,0.8-1.8,1.8-1.8l0,0c1,0,1.8,0.8,1.8,1.8l0,0
			C349.7,229.5,348.8,230.3,347.8,230.3z"/>
		<path class="st12" d="M353.9,224.1L353.9,224.1c-1,0-1.8-0.8-1.8-1.8v0c0-1,0.8-1.8,1.8-1.8l0,0c1,0,1.8,0.8,1.8,1.8v0
			C355.8,223.3,355,224.1,353.9,224.1z"/>
		<path class="st12" d="M353.9,230.3L353.9,230.3c-1,0-1.8-0.8-1.8-1.8l0,0c0-1,0.8-1.8,1.8-1.8l0,0c1,0,1.8,0.8,1.8,1.8l0,0
			C355.8,229.5,355,230.3,353.9,230.3z"/>
		<path class="st6" d="M390.8,273.7h-89.3c-2.1,0-3.9-1.7-3.9-3.9v-23.5c0-2.1,1.7-3.9,3.9-3.9h89.3c2.1,0,3.9,1.7,3.9,3.9v23.5
			C394.7,272,392.9,273.7,390.8,273.7z"/>
		<path class="st6" d="M381.3,273.7h-79.8c-2.1,0-3.9-1.7-3.9-3.9v-23.5c0-2.1,1.7-3.9,3.9-3.9h79.8c2.1,0,3.9,1.7,3.9,3.9v23.5
			C385.2,272,383.4,273.7,381.3,273.7z"/>
		<circle class="st6" cx="368.7" cy="256.4" r="4.8"/>
		<path class="st6" d="M379.3,265.8"/>
		<path class="st6" d="M304.9,265.8"/>
		<path class="st12" d="M311,255.4L311,255.4c-1,0-1.8-0.8-1.8-1.8v0c0-1,0.8-1.8,1.8-1.8h0c1,0,1.8,0.8,1.8,1.8v0
			C312.8,254.5,312,255.4,311,255.4z"/>
		<path class="st12" d="M311,261.6L311,261.6c-1,0-1.8-0.8-1.8-1.8v0c0-1,0.8-1.8,1.8-1.8h0c1,0,1.8,0.8,1.8,1.8v0
			C312.8,260.7,312,261.6,311,261.6z"/>
		<path class="st12" d="M317.1,255.4L317.1,255.4c-1,0-1.8-0.8-1.8-1.8v0c0-1,0.8-1.8,1.8-1.8l0,0c1,0,1.8,0.8,1.8,1.8v0
			C319,254.5,318.2,255.4,317.1,255.4z"/>
		<path class="st12" d="M317.1,261.6L317.1,261.6c-1,0-1.8-0.8-1.8-1.8v0c0-1,0.8-1.8,1.8-1.8l0,0c1,0,1.8,0.8,1.8,1.8v0
			C319,260.7,318.2,261.6,317.1,261.6z"/>
		<path class="st12" d="M323.3,255.4L323.3,255.4c-1,0-1.8-0.8-1.8-1.8v0c0-1,0.8-1.8,1.8-1.8l0,0c1,0,1.8,0.8,1.8,1.8v0
			C325.1,254.5,324.3,255.4,323.3,255.4z"/>
		<path class="st12" d="M323.3,261.6L323.3,261.6c-1,0-1.8-0.8-1.8-1.8v0c0-1,0.8-1.8,1.8-1.8l0,0c1,0,1.8,0.8,1.8,1.8v0
			C325.1,260.7,324.3,261.6,323.3,261.6z"/>
		<path class="st12" d="M329.4,255.4L329.4,255.4c-1,0-1.8-0.8-1.8-1.8v0c0-1,0.8-1.8,1.8-1.8l0,0c1,0,1.8,0.8,1.8,1.8v0
			C331.3,254.5,330.4,255.4,329.4,255.4z"/>
		<path class="st12" d="M329.4,261.6L329.4,261.6c-1,0-1.8-0.8-1.8-1.8v0c0-1,0.8-1.8,1.8-1.8l0,0c1,0,1.8,0.8,1.8,1.8v0
			C331.3,260.7,330.4,261.6,329.4,261.6z"/>
		<path class="st12" d="M335.5,255.4L335.5,255.4c-1,0-1.8-0.8-1.8-1.8v0c0-1,0.8-1.8,1.8-1.8l0,0c1,0,1.8,0.8,1.8,1.8v0
			C337.4,254.5,336.6,255.4,335.5,255.4z"/>
		<path class="st12" d="M335.5,261.6L335.5,261.6c-1,0-1.8-0.8-1.8-1.8v0c0-1,0.8-1.8,1.8-1.8l0,0c1,0,1.8,0.8,1.8,1.8v0
			C337.4,260.7,336.6,261.6,335.5,261.6z"/>
		<path class="st12" d="M341.7,255.4L341.7,255.4c-1,0-1.8-0.8-1.8-1.8v0c0-1,0.8-1.8,1.8-1.8h0c1,0,1.8,0.8,1.8,1.8v0
			C343.5,254.5,342.7,255.4,341.7,255.4z"/>
		<path class="st12" d="M341.7,261.6L341.7,261.6c-1,0-1.8-0.8-1.8-1.8v0c0-1,0.8-1.8,1.8-1.8h0c1,0,1.8,0.8,1.8,1.8v0
			C343.5,260.7,342.7,261.6,341.7,261.6z"/>
		<path class="st12" d="M347.8,255.4L347.8,255.4c-1,0-1.8-0.8-1.8-1.8v0c0-1,0.8-1.8,1.8-1.8l0,0c1,0,1.8,0.8,1.8,1.8v0
			C349.7,254.5,348.8,255.4,347.8,255.4z"/>
		<path class="st12" d="M347.8,261.6L347.8,261.6c-1,0-1.8-0.8-1.8-1.8v0c0-1,0.8-1.8,1.8-1.8l0,0c1,0,1.8,0.8,1.8,1.8v0
			C349.7,260.7,348.8,261.6,347.8,261.6z"/>
		<path class="st12" d="M353.9,255.4L353.9,255.4c-1,0-1.8-0.8-1.8-1.8v0c0-1,0.8-1.8,1.8-1.8l0,0c1,0,1.8,0.8,1.8,1.8v0
			C355.8,254.5,355,255.4,353.9,255.4z"/>
		<path class="st12" d="M353.9,261.6L353.9,261.6c-1,0-1.8-0.8-1.8-1.8v0c0-1,0.8-1.8,1.8-1.8l0,0c1,0,1.8,0.8,1.8,1.8v0
			C355.8,260.7,355,261.6,353.9,261.6z"/>
		<g>
			<path class="st5" d="M344.6,132c-3.7-13-15.5-19.2-26.9-15.9c-11.4,3.2-18.2,14.6-14.5,27.7c3.7,12.9,17.2,26,28.5,23.1l-1.1,4.5
				l5.1-1.5l-3.3-3.2C343.6,163.2,348.2,144.9,344.6,132z"/>
			<line class="st5" x1="333.2" y1="170.7" x2="344.5" y2="210.3"/>
		</g>
		<g>
			<path class="st5" d="M352,132c3.7-13,15.5-19.2,26.9-15.9c11.4,3.2,18.2,14.6,14.5,27.7c-3.7,12.9-17.2,26-28.5,23.1l1.1,4.5
				l-5.1-1.5l3.3-3.2C353,163.2,348.4,144.9,352,132z"/>
			<line class="st5" x1="363.4" y1="170.7" x2="352.1" y2="210.3"/>
		</g>
		<g>
			<path class="st5" d="M371.5,130c0-14.6-10.4-24.4-23.2-24.4s-23.2,9.8-23.2,24.4c0,14.4,10.2,32,22.8,32.4l-2.4,4.3l5.7-0.1
				l-2.5-4.3C361.3,162.1,371.5,144.5,371.5,130z"/>
			<line class="st5" x1="348.3" y1="166.8" x2="348.3" y2="211.2"/>
		</g>
	</g>
	<g>
		<rect x="201.7" y="384.8" class="st5" width="94.6" height="166"/>
		<g>
			<rect x="241.8" y="397.9" class="st5" width="45" height="35"/>
			<line class="st6" x1="251.5" y1="397.9" x2="251.5" y2="432.8"/>
			<line class="st6" x1="276" y1="397.9" x2="276" y2="432.8"/>
		</g>
		<g>
			<rect x="241.4" y="445.3" class="st6" width="16.3" height="36.5"/>
			<line class="st6" x1="241.4" y1="467.5" x2="257.7" y2="467.5"/>
			<rect x="270.8" y="445.3" class="st6" width="16.3" height="36.5"/>
			<line class="st6" x1="270.8" y1="467.5" x2="287.1" y2="467.5"/>
		</g>
		<g>
			<rect x="241.4" y="498.3" class="st6" width="16.3" height="36.5"/>
			<line class="st6" x1="241.4" y1="520.4" x2="257.7" y2="520.4"/>
			<rect x="270.8" y="498.3" class="st6" width="16.3" height="36.5"/>
			<line class="st6" x1="270.8" y1="520.4" x2="287.1" y2="520.4"/>
		</g>
		<rect x="213.3" y="397.1" class="st6" width="16.3" height="36.5"/>
		<line class="st6" x1="213.3" y1="419.2" x2="229.6" y2="419.2"/>
		<path class="st6" d="M229.6,550.7v-96.1c0-5.1-4.2-9.3-9.3-9.3s-9.3,4.2-9.3,9.3v96.1H229.6z"/>
		<rect x="270.8" y="333.5" class="st5" width="9" height="25.4"/>
		<polygon class="st5" points="305.1,384.8 250.6,329 192.9,384.8 		"/>
		<polygon class="st5" points="287,377.7 250.1,340 211,377.7 		"/>
	</g>
	<polygon class="st5" points="1120.2,562.9 193.9,562.9 199.9,550.5 1114.2,550.5 	"/>
	<rect x="193.9" y="563.1" class="st5" width="926.1" height="64.2"/>
	<line class="st6" x1="193.9" y1="569.6" x2="1120" y2="569.6"/>
	<g>
		<rect x="200.9" y="583" class="st5" width="22.4" height="14.8"/>
		<circle class="st5" cx="212.1" cy="582.8" r="7.9"/>
	</g>
	<g>
		<rect x="228.9" y="583" class="st5" width="22.4" height="14.8"/>
		<circle class="st5" cx="240.1" cy="582.8" r="7.9"/>
	</g>
	<g>
		<rect x="257.2" y="583" class="st5" width="22.4" height="14.8"/>
		<circle class="st5" cx="268.4" cy="582.8" r="7.9"/>
	</g>
	<g>
		<rect x="285.5" y="583" class="st5" width="22.4" height="14.8"/>
		<circle class="st5" cx="296.7" cy="582.8" r="7.9"/>
	</g>
	<g>
		<rect x="313.8" y="583" class="st5" width="22.4" height="14.8"/>
		<circle class="st5" cx="325" cy="582.8" r="7.9"/>
	</g>
	<g>
		<rect x="342" y="583" class="st5" width="22.4" height="14.8"/>
		<circle class="st5" cx="353.2" cy="582.8" r="7.9"/>
	</g>
	<g>
		<rect x="370.3" y="583" class="st5" width="22.4" height="14.8"/>
		<circle class="st5" cx="381.5" cy="582.8" r="7.9"/>
	</g>
	<g>
		<rect x="398.6" y="583" class="st5" width="22.4" height="14.8"/>
		<circle class="st5" cx="409.8" cy="582.8" r="7.9"/>
	</g>
	<g>
		<rect x="426.8" y="583" class="st5" width="22.4" height="14.8"/>
		<circle class="st5" cx="438.1" cy="582.8" r="7.9"/>
	</g>
	<g>
		<rect x="455.1" y="583" class="st5" width="22.4" height="14.8"/>
		<circle class="st5" cx="466.3" cy="582.8" r="7.9"/>
	</g>
	<g>
		<rect x="483.4" y="583" class="st5" width="22.4" height="14.8"/>
		<circle class="st5" cx="494.6" cy="582.8" r="7.9"/>
	</g>
	<g>
		<rect x="511.7" y="583" class="st5" width="22.4" height="14.8"/>
		<circle class="st5" cx="522.9" cy="582.8" r="7.9"/>
	</g>
	<g>
		<rect x="779.6" y="583" class="st5" width="22.4" height="14.8"/>
		<circle class="st5" cx="790.9" cy="582.8" r="7.9"/>
	</g>
	<g>
		<rect x="807.9" y="583" class="st5" width="22.4" height="14.8"/>
		<circle class="st5" cx="819.1" cy="582.8" r="7.9"/>
	</g>
	<g>
		<rect x="836.2" y="583" class="st5" width="22.4" height="14.8"/>
		<circle class="st5" cx="847.4" cy="582.8" r="7.9"/>
	</g>
	<g>
		<rect x="864.5" y="583" class="st5" width="22.4" height="14.8"/>
		<circle class="st5" cx="875.7" cy="582.8" r="7.9"/>
	</g>
	<g>
		<rect x="892.7" y="583" class="st5" width="22.4" height="14.8"/>
		<circle class="st5" cx="903.9" cy="582.8" r="7.9"/>
	</g>
	<g>
		<rect x="921" y="583" class="st5" width="22.4" height="14.8"/>
		<circle class="st5" cx="932.2" cy="582.8" r="7.9"/>
	</g>
	<g>
		<rect x="949.3" y="583" class="st5" width="22.4" height="14.8"/>
		<circle class="st5" cx="960.5" cy="582.8" r="7.9"/>
	</g>
	<g>
		<rect x="977.6" y="583" class="st5" width="22.4" height="14.8"/>
		<circle class="st5" cx="988.8" cy="582.8" r="7.9"/>
	</g>
	<g>
		<rect x="1005.8" y="583" class="st5" width="22.4" height="14.8"/>
		<circle class="st5" cx="1017" cy="582.8" r="7.9"/>
	</g>
	<g>
		<rect x="1034.1" y="583" class="st5" width="22.4" height="14.8"/>
		<circle class="st5" cx="1045.3" cy="582.8" r="7.9"/>
	</g>
	<g>
		<rect x="1062.4" y="583" class="st5" width="22.4" height="14.8"/>
		<circle class="st5" cx="1073.6" cy="582.8" r="7.9"/>
	</g>
	<g>
		<rect x="1090.6" y="583" class="st5" width="22.4" height="14.8"/>
		<circle class="st5" cx="1101.9" cy="582.8" r="7.9"/>
	</g>
	<g>
		<polygon class="st5" points="784.6,565.3 534.1,565.3 552.1,530.5 766.6,530.5 		"/>
		<rect x="538.4" y="565.3" class="st5" width="241.9" height="61.8"/>
	</g>
	<g>
		<g>
			<g>
				<rect x="1468.5" y="447.7" class="st5" width="45.6" height="126"/>
				<line class="st5" x1="1349.4" y1="446.8" x2="1349.4" y2="573.7"/>
				<g>
					<line class="st6" x1="1479" y1="458.7" x2="1503.7" y2="458.7"/>
					<line class="st6" x1="1479" y1="469.7" x2="1503.7" y2="469.7"/>
					<line class="st6" x1="1479" y1="480.7" x2="1503.7" y2="480.7"/>
					<line class="st6" x1="1479" y1="491.7" x2="1503.7" y2="491.7"/>
					<line class="st6" x1="1479" y1="502.7" x2="1503.7" y2="502.7"/>
					<line class="st6" x1="1479" y1="513.7" x2="1503.7" y2="513.7"/>
					<line class="st6" x1="1479" y1="524.7" x2="1503.7" y2="524.7"/>
					<line class="st6" x1="1479" y1="535.7" x2="1503.7" y2="535.7"/>
					<line class="st6" x1="1479" y1="546.7" x2="1503.7" y2="546.7"/>
					<line class="st6" x1="1479" y1="557.7" x2="1503.7" y2="557.7"/>
					<line class="st5" x1="1348.5" y1="447.7" x2="1394.1" y2="447.7"/>
					<line class="st6" x1="1359" y1="458.7" x2="1383.7" y2="458.7"/>
					<line class="st6" x1="1359" y1="469.7" x2="1383.7" y2="469.7"/>
					<line class="st6" x1="1359" y1="480.7" x2="1383.7" y2="480.7"/>
					<line class="st6" x1="1359" y1="491.7" x2="1383.7" y2="491.7"/>
					<line class="st6" x1="1359" y1="502.7" x2="1383.7" y2="502.7"/>
					<line class="st6" x1="1359" y1="513.7" x2="1383.7" y2="513.7"/>
					<line class="st6" x1="1359" y1="524.7" x2="1383.7" y2="524.7"/>
					<line class="st6" x1="1359" y1="535.7" x2="1383.7" y2="535.7"/>
					<line class="st6" x1="1359" y1="546.7" x2="1383.7" y2="546.7"/>
					<line class="st6" x1="1359" y1="557.7" x2="1383.7" y2="557.7"/>
				</g>
			</g>
			<rect x="1394.5" y="242.9" class="st5" width="76.3" height="274.9"/>
			<g>
				<polygon class="st5" points="1432.6,128.2 1386.2,573.4 1479,573.4 				"/>
				<line class="st6" x1="1426.1" y1="255.2" x2="1439.1" y2="255.2"/>
				<line class="st6" x1="1422" y1="270.9" x2="1443.2" y2="270.9"/>
				<line class="st6" x1="1419.8" y1="286.7" x2="1445.4" y2="286.7"/>
				<line class="st6" x1="1418" y1="302.4" x2="1447.2" y2="302.4"/>
				<line class="st6" x1="1416.6" y1="318.2" x2="1448.6" y2="318.2"/>
				<line class="st6" x1="1414.7" y1="333.9" x2="1450.5" y2="333.9"/>
				<line class="st6" x1="1413.2" y1="349.6" x2="1452" y2="349.6"/>
				<line class="st6" x1="1411.5" y1="365.4" x2="1453.8" y2="365.4"/>
				<line class="st6" x1="1409.7" y1="381.1" x2="1455.5" y2="381.1"/>
				<line class="st6" x1="1409.5" y1="396.8" x2="1455.7" y2="396.8"/>
				<line class="st6" x1="1407.3" y1="412.6" x2="1457.9" y2="412.6"/>
				<line class="st6" x1="1406.5" y1="428.3" x2="1458.7" y2="428.3"/>
				<line class="st6" x1="1404.8" y1="444" x2="1460.4" y2="444"/>
				<line class="st6" x1="1404.6" y1="459.8" x2="1460.6" y2="459.8"/>
				<line class="st6" x1="1402.3" y1="475.5" x2="1462.9" y2="475.5"/>
				<line class="st6" x1="1399.6" y1="491.3" x2="1465.6" y2="491.3"/>
				<line class="st6" x1="1397.9" y1="507" x2="1467.4" y2="507"/>
				<line class="st6" x1="1396.1" y1="522.7" x2="1469.1" y2="522.7"/>
				<line class="st6" x1="1394.5" y1="538.5" x2="1470.7" y2="538.5"/>
				<line class="st6" x1="1394.5" y1="554.2" x2="1470.7" y2="554.2"/>
			</g>
			<line class="st6" x1="1394.5" y1="247.8" x2="1470.7" y2="247.8"/>
			<g>
				<rect x="1402.3" y="253" class="st12" width="7.8" height="7.8"/>
				<rect x="1402.3" y="264.2" class="st12" width="7.8" height="7.8"/>
				<rect x="1402.3" y="275.5" class="st12" width="7.8" height="7.8"/>
				<rect x="1402.3" y="286.8" class="st12" width="7.8" height="7.8"/>
			</g>
			<g>
				<rect x="1455.8" y="253" class="st12" width="7.8" height="7.8"/>
				<rect x="1455.8" y="264.2" class="st12" width="7.8" height="7.8"/>
				<rect x="1455.8" y="275.5" class="st12" width="7.8" height="7.8"/>
				<rect x="1455.8" y="286.8" class="st12" width="7.8" height="7.8"/>
			</g>
		</g>
		<rect x="1347.7" y="573.7" class="st5" width="199" height="20"/>
	</g>
	<g>
		<rect x="1120" y="593.7" class="st6" width="517" height="33"/>
		<line class="st6" x1="1120" y1="603.4" x2="1637" y2="603.4"/>
		<g>
			<path class="st6" d="M1176.9,626.7c-1.2-8.1-8.1-14.3-16.5-14.3s-15.3,6.2-16.5,14.3H1176.9z"/>
			<path class="st6" d="M1236.8,626.7c-1.2-8.1-8.1-14.3-16.5-14.3s-15.3,6.2-16.5,14.3H1236.8z"/>
			<path class="st6" d="M1297.7,626.7c-1.2-8.1-8.1-14.3-16.5-14.3s-15.3,6.2-16.5,14.3H1297.7z"/>
			<path class="st6" d="M1357.6,626.7c-1.2-8.1-8.1-14.3-16.5-14.3s-15.3,6.2-16.5,14.3H1357.6z"/>
			<path class="st6" d="M1419.2,626.7c-1.2-8.1-8.1-14.3-16.5-14.3s-15.3,6.2-16.5,14.3H1419.2z"/>
			<path class="st6" d="M1480.2,626.7c-1.2-8.1-8.1-14.3-16.5-14.3s-15.3,6.2-16.5,14.3H1480.2z"/>
			<path class="st6" d="M1541.1,626.7c-1.2-8.1-8.1-14.3-16.5-14.3s-15.3,6.2-16.5,14.3H1541.1z"/>
			<path class="st6" d="M1601.3,626.7c-1.2-8.1-8.1-14.3-16.5-14.3s-15.3,6.2-16.5,14.3H1601.3z"/>
		</g>
	</g>
	<g>
		<g>
			<rect x="1241" y="324.8" class="st6" width="25" height="268.7"/>
			<rect x="1153.7" y="324.8" class="st6" width="25.3" height="268.7"/>
			<g>
				<rect x="1179.4" y="314.8" class="st6" width="61.7" height="278.7"/>
				<g>
					<g>
						<rect x="1188.3" y="324.8" class="st6" width="19.1" height="13.4"/>
						<rect x="1213" y="324.8" class="st6" width="19.1" height="13.4"/>
					</g>
					<g>
						<rect x="1188.3" y="343.9" class="st6" width="19.1" height="13.4"/>
						<rect x="1213" y="343.9" class="st6" width="19.1" height="13.4"/>
					</g>
					<g>
						<rect x="1188.3" y="362.9" class="st6" width="19.1" height="13.4"/>
						<rect x="1213" y="362.9" class="st6" width="19.1" height="13.4"/>
					</g>
					<g>
						<rect x="1188.3" y="382" class="st6" width="19.1" height="13.4"/>
						<rect x="1213" y="382" class="st6" width="19.1" height="13.4"/>
					</g>
					<g>
						<rect x="1188.3" y="401.1" class="st6" width="19.1" height="13.4"/>
						<rect x="1213" y="401.1" class="st6" width="19.1" height="13.4"/>
					</g>
					<g>
						<rect x="1188.3" y="420.2" class="st6" width="19.1" height="13.4"/>
						<rect x="1213" y="420.2" class="st6" width="19.1" height="13.4"/>
					</g>
					<g>
						<rect x="1188.3" y="439.3" class="st6" width="19.1" height="13.4"/>
						<rect x="1213" y="439.3" class="st6" width="19.1" height="13.4"/>
					</g>
					<g>
						<rect x="1188.3" y="458.3" class="st6" width="19.1" height="13.4"/>
						<rect x="1213" y="458.3" class="st6" width="19.1" height="13.4"/>
					</g>
					<g>
						<rect x="1188.3" y="477.3" class="st6" width="19.1" height="13.4"/>
						<rect x="1213" y="477.3" class="st6" width="19.1" height="13.4"/>
					</g>
					<g>
						<rect x="1188.3" y="496.3" class="st6" width="19.1" height="13.4"/>
						<rect x="1213" y="496.3" class="st6" width="19.1" height="13.4"/>
					</g>
					<g>
						<rect x="1188.3" y="515.3" class="st6" width="19.1" height="13.4"/>
						<rect x="1213" y="515.3" class="st6" width="19.1" height="13.4"/>
					</g>
					<g>
						<rect x="1188.3" y="534.3" class="st6" width="19.1" height="13.4"/>
						<rect x="1213" y="534.3" class="st6" width="19.1" height="13.4"/>
					</g>
					<g>
						<rect x="1188.3" y="553.3" class="st6" width="19.1" height="13.4"/>
						<rect x="1213" y="553.3" class="st6" width="19.1" height="13.4"/>
					</g>
				</g>
			</g>
			<g>
				<rect x="1162.1" y="331.5" class="st6" width="9.9" height="9.9"/>
				<rect x="1162.1" y="347.5" class="st6" width="9.9" height="9.9"/>
				<rect x="1162.1" y="363.6" class="st6" width="9.9" height="9.9"/>
				<rect x="1162.1" y="379.7" class="st6" width="9.9" height="9.9"/>
				<rect x="1162.1" y="395.7" class="st6" width="9.9" height="9.9"/>
				<rect x="1162.1" y="411.8" class="st6" width="9.9" height="9.9"/>
				<rect x="1162.1" y="427.9" class="st6" width="9.9" height="9.9"/>
				<rect x="1162.1" y="443.9" class="st6" width="9.9" height="9.9"/>
				<rect x="1162.1" y="460" class="st6" width="9.9" height="9.9"/>
				<rect x="1162.1" y="476.1" class="st6" width="9.9" height="9.9"/>
				<rect x="1162.1" y="492.1" class="st6" width="9.9" height="9.9"/>
				<rect x="1162.1" y="508.2" class="st6" width="9.9" height="9.9"/>
				<rect x="1162.1" y="524.2" class="st6" width="9.9" height="9.9"/>
				<rect x="1162.1" y="540.3" class="st6" width="9.9" height="9.9"/>
				<rect x="1162.1" y="556.4" class="st6" width="9.9" height="9.9"/>
				<rect x="1162.1" y="572.4" class="st6" width="9.9" height="9.9"/>
			</g>
			<g>
				<rect x="1249.1" y="331.6" class="st6" width="9.9" height="9.9"/>
				<rect x="1249.1" y="347.6" class="st6" width="9.9" height="9.9"/>
				<rect x="1249.1" y="363.7" class="st6" width="9.9" height="9.9"/>
				<rect x="1249.1" y="379.8" class="st6" width="9.9" height="9.9"/>
				<rect x="1249.1" y="395.8" class="st6" width="9.9" height="9.9"/>
				<rect x="1249.1" y="411.9" class="st6" width="9.9" height="9.9"/>
				<rect x="1249.1" y="428" class="st6" width="9.9" height="9.9"/>
				<rect x="1249.1" y="444" class="st6" width="9.9" height="9.9"/>
				<rect x="1249.1" y="460.1" class="st6" width="9.9" height="9.9"/>
				<rect x="1249.1" y="476.1" class="st6" width="9.9" height="9.9"/>
				<rect x="1249.1" y="492.2" class="st6" width="9.9" height="9.9"/>
				<rect x="1249.1" y="508.3" class="st6" width="9.9" height="9.9"/>
				<rect x="1249.1" y="524.3" class="st6" width="9.9" height="9.9"/>
				<rect x="1249.1" y="540.4" class="st6" width="9.9" height="9.9"/>
				<rect x="1249.1" y="556.5" class="st6" width="9.9" height="9.9"/>
				<rect x="1249.1" y="572.5" class="st6" width="9.9" height="9.9"/>
			</g>
		</g>
		<polygon class="st6" points="1201.5,314.8 1193.2,314.8 1201.5,263.2 		"/>
		<polygon class="st6" points="1217.7,314.8 1226,314.8 1217.7,263.2 		"/>
	</g>
	<g>
		<rect x="1273.7" y="480.7" class="st5" width="66.3" height="113"/>
		<g>
			<rect x="1273.7" y="498.1" class="st5" width="66.3" height="10"/>
			<line class="st5" x1="1283.9" y1="498.1" x2="1283.9" y2="508.1"/>
			<line class="st5" x1="1294.9" y1="498.1" x2="1294.9" y2="508.1"/>
			<line class="st5" x1="1305.9" y1="498.1" x2="1305.9" y2="508.1"/>
			<line class="st5" x1="1316.9" y1="498.1" x2="1316.9" y2="508.1"/>
			<line class="st5" x1="1327.9" y1="498.1" x2="1327.9" y2="508.1"/>
		</g>
		<g>
			<rect x="1273.7" y="523.1" class="st5" width="66.3" height="10"/>
			<line class="st5" x1="1283.9" y1="523.1" x2="1283.9" y2="533.1"/>
			<line class="st5" x1="1294.9" y1="523.1" x2="1294.9" y2="533.1"/>
			<line class="st5" x1="1305.9" y1="523.1" x2="1305.9" y2="533.1"/>
			<line class="st5" x1="1316.9" y1="523.1" x2="1316.9" y2="533.1"/>
			<line class="st5" x1="1327.9" y1="523.1" x2="1327.9" y2="533.1"/>
		</g>
		<g>
			<rect x="1273.7" y="549.1" class="st5" width="66.3" height="10"/>
			<line class="st5" x1="1283.9" y1="549.1" x2="1283.9" y2="559.1"/>
			<line class="st5" x1="1294.9" y1="549.1" x2="1294.9" y2="559.1"/>
			<line class="st5" x1="1305.9" y1="549.1" x2="1305.9" y2="559.1"/>
			<line class="st5" x1="1316.9" y1="549.1" x2="1316.9" y2="559.1"/>
			<line class="st5" x1="1327.9" y1="549.1" x2="1327.9" y2="559.1"/>
		</g>
		<g>
			<rect x="1273.7" y="576.1" class="st5" width="66.3" height="10"/>
			<line class="st5" x1="1283.9" y1="576.1" x2="1283.9" y2="586.1"/>
			<line class="st5" x1="1294.9" y1="576.1" x2="1294.9" y2="586.1"/>
			<line class="st5" x1="1305.9" y1="576.1" x2="1305.9" y2="586.1"/>
			<line class="st5" x1="1316.9" y1="576.1" x2="1316.9" y2="586.1"/>
			<line class="st5" x1="1327.9" y1="576.1" x2="1327.9" y2="586.1"/>
		</g>
	</g>
	<rect x="1514.1" y="549.1" class="st15" width="102.1" height="44.6"/>
	<rect x="1528.2" y="555.9" class="st6" width="7.5" height="7.5"/>
	<rect x="1541.3" y="555.9" class="st6" width="7.5" height="7.5"/>
	<rect x="1562.4" y="555.9" class="st6" width="7.5" height="7.5"/>
	<rect x="1587.3" y="572" class="st6" width="7.5" height="7.5"/>
	<rect x="1600.4" y="572" class="st6" width="7.5" height="7.5"/>
	<rect x="1587.3" y="555.9" class="st6" width="7.5" height="7.5"/>
	<rect x="1600.4" y="555.9" class="st6" width="7.5" height="7.5"/>
	<rect x="1562.4" y="572" class="st6" width="7.5" height="7.5"/>
	<rect x="1545.8" y="527.3" class="st6" width="5.1" height="17.1"/>
	<rect x="1555.9" y="527.3" class="st6" width="5.1" height="17.1"/>
	<rect x="1566" y="527.3" class="st6" width="5.1" height="17.1"/>
	<rect x="1576.1" y="527.3" class="st6" width="5.1" height="17.1"/>
	<rect x="1586.2" y="527.3" class="st6" width="5.1" height="17.1"/>
	<g>
		<rect x="1541" y="514.4" class="st6" width="55.1" height="34.7"/>
		<line class="st6" x1="1541" y1="518" x2="1596" y2="518"/>
		<line class="st6" x1="1541" y1="522.3" x2="1596" y2="522.3"/>
		<rect x="1551.1" y="510.2" class="st6" width="34.8" height="4.2"/>
	</g>
	<rect x="75.7" y="507" class="st16" width="118.2" height="54"/>
	<rect x="148.6" y="515.4" class="st6" width="12.3" height="9"/>
	<rect x="148.6" y="537.2" class="st6" width="12.3" height="9"/>
	<rect x="173.6" y="515.4" class="st6" width="12.3" height="9"/>
	<rect x="173.6" y="537.2" class="st6" width="12.3" height="9"/>
	<g>
		<rect x="779.6" y="470.8" class="st6" width="167.7" height="79.3"/>
		<rect x="779.6" y="487.1" class="st6" width="167.7" height="10.3"/>
		<rect x="779.6" y="507.2" class="st6" width="167.7" height="10.3"/>
		<rect x="779.6" y="528.4" class="st6" width="167.7" height="10.3"/>
		<g>
			<line class="st6" x1="792.7" y1="487.1" x2="792.7" y2="497.5"/>
			<line class="st6" x1="803.7" y1="487.1" x2="803.7" y2="497.5"/>
			<line class="st6" x1="824.7" y1="487.1" x2="824.7" y2="497.5"/>
			<line class="st6" x1="835.7" y1="487.1" x2="835.7" y2="497.5"/>
			<line class="st6" x1="856.7" y1="487.1" x2="856.7" y2="497.5"/>
			<line class="st6" x1="867.7" y1="487.1" x2="867.7" y2="497.5"/>
			<line class="st6" x1="888.7" y1="487.1" x2="888.7" y2="497.5"/>
			<line class="st6" x1="899.7" y1="487.1" x2="899.7" y2="497.5"/>
			<line class="st6" x1="920.7" y1="487.1" x2="920.7" y2="497.5"/>
			<line class="st6" x1="931.7" y1="487.1" x2="931.7" y2="497.5"/>
		</g>
		<g>
			<line class="st6" x1="792.7" y1="507.1" x2="792.7" y2="517.5"/>
			<line class="st6" x1="803.7" y1="507.1" x2="803.7" y2="517.5"/>
			<line class="st6" x1="824.7" y1="507.1" x2="824.7" y2="517.5"/>
			<line class="st6" x1="835.7" y1="507.1" x2="835.7" y2="517.5"/>
			<line class="st6" x1="856.7" y1="507.1" x2="856.7" y2="517.5"/>
			<line class="st6" x1="867.7" y1="507.1" x2="867.7" y2="517.5"/>
			<line class="st6" x1="888.7" y1="507.1" x2="888.7" y2="517.5"/>
			<line class="st6" x1="899.7" y1="507.1" x2="899.7" y2="517.5"/>
			<line class="st6" x1="920.7" y1="507.1" x2="920.7" y2="517.5"/>
			<line class="st6" x1="931.7" y1="507.1" x2="931.7" y2="517.5"/>
		</g>
		<g>
			<line class="st6" x1="792.7" y1="528.1" x2="792.7" y2="538.5"/>
			<line class="st6" x1="803.7" y1="528.1" x2="803.7" y2="538.5"/>
			<line class="st6" x1="824.7" y1="528.1" x2="824.7" y2="538.5"/>
			<line class="st6" x1="835.7" y1="528.1" x2="835.7" y2="538.5"/>
			<line class="st6" x1="856.7" y1="528.1" x2="856.7" y2="538.5"/>
			<line class="st6" x1="867.7" y1="528.1" x2="867.7" y2="538.5"/>
			<line class="st6" x1="888.7" y1="528.1" x2="888.7" y2="538.5"/>
			<line class="st6" x1="899.7" y1="528.1" x2="899.7" y2="538.5"/>
			<line class="st6" x1="920.7" y1="528.1" x2="920.7" y2="538.5"/>
			<line class="st6" x1="931.7" y1="528.1" x2="931.7" y2="538.5"/>
		</g>
	</g>
	<g>
		<rect x="4.1" y="411.6" class="st6" width="71.7" height="215.7"/>
		<rect x="14.4" y="411.6" class="st6" width="22" height="215.7"/>
		<rect x="45.4" y="411.6" class="st6" width="22" height="215.7"/>
		<g>
			<line class="st6" x1="19.9" y1="420.9" x2="30.9" y2="420.9"/>
			<line class="st6" x1="19.9" y1="431" x2="30.9" y2="431"/>
			<line class="st6" x1="19.9" y1="441.1" x2="30.9" y2="441.1"/>
			<line class="st6" x1="19.9" y1="451.2" x2="30.9" y2="451.2"/>
			<line class="st6" x1="19.9" y1="461.3" x2="30.9" y2="461.3"/>
			<line class="st6" x1="19.9" y1="471.4" x2="30.9" y2="471.4"/>
			<line class="st6" x1="19.9" y1="481.5" x2="30.9" y2="481.5"/>
			<line class="st6" x1="19.9" y1="491.6" x2="30.9" y2="491.6"/>
			<line class="st6" x1="19.9" y1="501.7" x2="30.9" y2="501.7"/>
			<line class="st6" x1="19.9" y1="511.8" x2="30.9" y2="511.8"/>
			<line class="st6" x1="19.9" y1="521.9" x2="30.9" y2="521.9"/>
			<line class="st6" x1="19.9" y1="532" x2="30.9" y2="532"/>
			<line class="st6" x1="19.9" y1="542.1" x2="30.9" y2="542.1"/>
			<line class="st6" x1="19.9" y1="552.2" x2="30.9" y2="552.2"/>
			<line class="st6" x1="19.9" y1="562.3" x2="30.9" y2="562.3"/>
			<line class="st6" x1="19.9" y1="572.4" x2="30.9" y2="572.4"/>
			<line class="st6" x1="19.9" y1="582.5" x2="30.9" y2="582.5"/>
			<line class="st6" x1="19.9" y1="592.6" x2="30.9" y2="592.6"/>
			<line class="st6" x1="19.9" y1="602.7" x2="30.9" y2="602.7"/>
			<line class="st6" x1="19.9" y1="612.8" x2="30.9" y2="612.8"/>
			<line class="st6" x1="19.9" y1="622.9" x2="30.9" y2="622.9"/>
		</g>
		<g>
			<line class="st6" x1="51.9" y1="420.9" x2="62.9" y2="420.9"/>
			<line class="st6" x1="51.9" y1="431" x2="62.9" y2="431"/>
			<line class="st6" x1="51.9" y1="441.1" x2="62.9" y2="441.1"/>
			<line class="st6" x1="51.9" y1="451.2" x2="62.9" y2="451.2"/>
			<line class="st6" x1="51.9" y1="461.3" x2="62.9" y2="461.3"/>
			<line class="st6" x1="51.9" y1="471.4" x2="62.9" y2="471.4"/>
			<line class="st6" x1="51.9" y1="481.5" x2="62.9" y2="481.5"/>
			<line class="st6" x1="51.9" y1="491.6" x2="62.9" y2="491.6"/>
			<line class="st6" x1="51.9" y1="501.7" x2="62.9" y2="501.7"/>
			<line class="st6" x1="51.9" y1="511.8" x2="62.9" y2="511.8"/>
			<line class="st6" x1="51.9" y1="521.9" x2="62.9" y2="521.9"/>
			<line class="st6" x1="51.9" y1="532" x2="62.9" y2="532"/>
			<line class="st6" x1="51.9" y1="542.1" x2="62.9" y2="542.1"/>
			<line class="st6" x1="51.9" y1="552.2" x2="62.9" y2="552.2"/>
			<line class="st6" x1="51.9" y1="562.3" x2="62.9" y2="562.3"/>
			<line class="st6" x1="51.9" y1="572.4" x2="62.9" y2="572.4"/>
			<line class="st6" x1="51.9" y1="582.5" x2="62.9" y2="582.5"/>
			<line class="st6" x1="51.9" y1="592.6" x2="62.9" y2="592.6"/>
			<line class="st6" x1="51.9" y1="602.7" x2="62.9" y2="602.7"/>
			<line class="st6" x1="51.9" y1="612.8" x2="62.9" y2="612.8"/>
			<line class="st6" x1="51.9" y1="622.9" x2="62.9" y2="622.9"/>
		</g>
		<polygon class="st6" points="65.8,411.6 14.3,411.6 9.3,392.3 70.8,392.3 		"/>
		<rect x="21.3" y="396.6" class="st6" width="10.5" height="10.5"/>
		<rect x="50.3" y="396.6" class="st6" width="10.5" height="10.5"/>
		<rect x="25.8" y="366.8" class="st6" width="28.5" height="25.5"/>
		<g>
			<line class="st6" x1="30.6" y1="375.1" x2="30.6" y2="384.6"/>
			<line class="st6" x1="40.1" y1="375.1" x2="40.1" y2="384.6"/>
			<line class="st6" x1="49.6" y1="375.1" x2="49.6" y2="384.6"/>
		</g>
	</g>
	<g>
		<g>
			<rect x="75.7" y="416.3" class="st17" width="58.5" height="144.3"/>
			<line class="st17" x1="86.7" y1="435.4" x2="86.7" y2="560.6"/>
			<line class="st17" x1="123.2" y1="435.4" x2="123.2" y2="560.6"/>
			<rect x="75.7" y="560.6" class="st17" width="118.2" height="66.7"/>
			<rect x="86.7" y="567.6" class="st17" width="12.2" height="12"/>
			<rect x="107" y="567.6" class="st17" width="12.2" height="12"/>
			<rect x="127.3" y="567.6" class="st17" width="12.2" height="12"/>
			<rect x="147.6" y="567.6" class="st17" width="12.2" height="12"/>
			<rect x="167.9" y="567.6" class="st17" width="12.2" height="12"/>
			<rect x="86.7" y="588.6" class="st17" width="12.2" height="12"/>
			<rect x="107" y="588.6" class="st17" width="12.2" height="12"/>
			<rect x="127.3" y="588.6" class="st17" width="12.2" height="12"/>
		</g>
		<rect x="97" y="610.3" class="st17" width="47.9" height="17"/>
		<line class="st17" x1="97" y1="615.4" x2="144.9" y2="615.4"/>
	</g>
	<g>
		<rect x="358.3" y="444.6" class="st18" width="165" height="105.9"/>
		<rect x="358.3" y="463.6" class="st18" width="165" height="21.2"/>
		<rect x="358.3" y="505.2" class="st18" width="165" height="21.2"/>
		<line class="st18" x1="402.1" y1="444.6" x2="402.1" y2="463.6"/>
		<line class="st18" x1="421.1" y1="444.6" x2="421.1" y2="463.6"/>
		<line class="st18" x1="383.2" y1="485.5" x2="383.2" y2="504.5"/>
		<line class="st18" x1="402.2" y1="485.5" x2="402.2" y2="504.5"/>
		<line class="st18" x1="380.8" y1="526.4" x2="380.8" y2="545.4"/>
		<line class="st18" x1="399.8" y1="526.4" x2="399.8" y2="545.4"/>
		<line class="st18" x1="470.2" y1="526.4" x2="470.2" y2="545.4"/>
		<line class="st18" x1="489.2" y1="526.4" x2="489.2" y2="545.4"/>
		<line class="st19" x1="463" y1="463.6" x2="463" y2="484.8"/>
		<line class="st19" x1="482" y1="463.6" x2="482" y2="484.8"/>
		<line class="st19" x1="421.8" y1="505.2" x2="421.8" y2="526.4"/>
		<line class="st19" x1="440.8" y1="505.2" x2="440.8" y2="526.4"/>
		<line class="st18" x1="358.3" y1="544.9" x2="523.3" y2="544.9"/>
	</g>
	<rect x="432.3" y="435.4" class="st6" width="90.9" height="9.2"/>
	<rect x="296.3" y="398.4" class="st20" width="114.8" height="46.2"/>
	<rect x="319.5" y="387.9" class="st20" width="91.6" height="10.5"/>
	<rect x="306.8" y="415.1" class="st20" width="37.8" height="12.4"/>
	<rect x="362.1" y="415.1" class="st20" width="37.8" height="12.4"/>
	<g>
		<rect x="309.6" y="468.9" class="st6" width="36.7" height="13"/>
		<line class="st6" x1="328.9" y1="468.9" x2="328.9" y2="481.9"/>
	</g>
	<g>
		<rect x="309.6" y="496.9" class="st6" width="36.7" height="13"/>
		<line class="st6" x1="328.9" y1="496.9" x2="328.9" y2="509.9"/>
	</g>
	<rect x="411.1" y="287.9" class="st6" width="92.5" height="147.5"/>
	<g>
		<rect x="411.1" y="312.7" class="st6" width="92.5" height="9.8"/>
		<line class="st6" x1="430.1" y1="312.7" x2="430.1" y2="322.6"/>
		<line class="st6" x1="450.4" y1="312.7" x2="450.4" y2="322.6"/>
		<line class="st6" x1="470.8" y1="312.7" x2="470.8" y2="322.6"/>
		<line class="st6" x1="491.1" y1="312.7" x2="491.1" y2="322.6"/>
	</g>
	<g>
		<rect x="411.1" y="342.7" class="st6" width="92.5" height="9.8"/>
		<line class="st6" x1="430.1" y1="342.7" x2="430.1" y2="352.6"/>
		<line class="st6" x1="450.4" y1="342.7" x2="450.4" y2="352.6"/>
		<line class="st6" x1="470.8" y1="342.7" x2="470.8" y2="352.6"/>
		<line class="st6" x1="491.1" y1="342.7" x2="491.1" y2="352.6"/>
	</g>
	<g>
		<rect x="411.1" y="373.7" class="st6" width="92.5" height="9.8"/>
		<line class="st6" x1="430.1" y1="373.7" x2="430.1" y2="383.6"/>
		<line class="st6" x1="450.4" y1="373.7" x2="450.4" y2="383.6"/>
		<line class="st6" x1="470.8" y1="373.7" x2="470.8" y2="383.6"/>
		<line class="st6" x1="491.1" y1="373.7" x2="491.1" y2="383.6"/>
	</g>
	<g>
		<rect x="411.1" y="403.7" class="st6" width="92.5" height="9.8"/>
		<line class="st6" x1="430.1" y1="403.7" x2="430.1" y2="413.6"/>
		<line class="st6" x1="450.4" y1="403.7" x2="450.4" y2="413.6"/>
		<line class="st6" x1="470.8" y1="403.7" x2="470.8" y2="413.6"/>
		<line class="st6" x1="491.1" y1="403.7" x2="491.1" y2="413.6"/>
	</g>
	<rect x="798.2" y="405.8" class="st6" width="127" height="65"/>
	<rect x="811.7" y="451.2" class="st6" width="100" height="19.6"/>
	<line class="st6" x1="811" y1="461" x2="911" y2="461"/>
	<g>
		<rect x="815.2" y="413.8" class="st6" width="12" height="9.9"/>
		<rect x="815.2" y="432.8" class="st6" width="12" height="9.9"/>
		<rect x="856.2" y="413.8" class="st6" width="12" height="9.9"/>
		<rect x="856.2" y="432.8" class="st6" width="12" height="9.9"/>
		<rect x="896.2" y="413.8" class="st6" width="12" height="9.9"/>
		<rect x="896.2" y="432.8" class="st6" width="12" height="9.9"/>
	</g>
	<rect x="818.4" y="243" class="st21" width="88.2" height="162.8"/>
	<rect x="833.4" y="243" class="st22" width="58.2" height="162.8"/>
	<line class="st23" x1="833.4" y1="264.1" x2="891.6" y2="264.1"/>
	<line class="st23" x1="833.4" y1="285.1" x2="891.6" y2="285.1"/>
	<line class="st23" x1="833.4" y1="306.1" x2="891.6" y2="306.1"/>
	<line class="st23" x1="833.4" y1="327.1" x2="891.6" y2="327.1"/>
	<line class="st23" x1="833.4" y1="348.1" x2="891.6" y2="348.1"/>
	<line class="st23" x1="833.4" y1="369.1" x2="891.6" y2="369.1"/>
	<line class="st23" x1="833.4" y1="390.1" x2="891.6" y2="390.1"/>
	<polygon class="st23" points="884.4,242.8 840.4,242.8 850.4,233.4 874.4,233.4 	"/>
	<rect x="708.9" y="339.8" class="st6" width="52.8" height="114.2"/>
	<g>
		<rect x="715.9" y="355.3" class="st6" width="38.8" height="14.2"/>
		<rect x="715.9" y="378.3" class="st6" width="38.8" height="14.2"/>
		<rect x="715.9" y="401.3" class="st6" width="38.8" height="14.2"/>
		<rect x="715.9" y="424.3" class="st6" width="38.8" height="14.2"/>
	</g>
	<rect x="92.6" y="401.9" class="st17" width="25.7" height="14.4"/>
	<g>
		<rect x="627.5" y="312.4" class="st23" width="11.8" height="28.4"/>
		<rect x="644.8" y="312.4" class="st23" width="11.8" height="28.4"/>
		<rect x="662.1" y="312.4" class="st23" width="11.8" height="28.4"/>
		<rect x="679.5" y="312.4" class="st23" width="11.8" height="28.4"/>
	</g>
	<g>
		<rect x="627.5" y="369.7" class="st23" width="11.8" height="28.4"/>
		<rect x="644.8" y="369.7" class="st23" width="11.8" height="28.4"/>
		<rect x="662.1" y="369.7" class="st23" width="11.8" height="28.4"/>
		<rect x="679.5" y="369.7" class="st23" width="11.8" height="28.4"/>
	</g>
	<g>
		<rect x="627.5" y="427.1" class="st23" width="11.8" height="28.4"/>
		<rect x="644.8" y="427.1" class="st23" width="11.8" height="28.4"/>
		<rect x="662.1" y="427.1" class="st23" width="11.8" height="28.4"/>
		<rect x="679.5" y="427.1" class="st23" width="11.8" height="28.4"/>
	</g>
	<g>
		<rect x="627.5" y="484.4" class="st23" width="11.8" height="28.4"/>
		<rect x="644.8" y="484.4" class="st23" width="11.8" height="28.4"/>
		<rect x="662.1" y="484.4" class="st23" width="11.8" height="28.4"/>
		<rect x="679.5" y="484.4" class="st23" width="11.8" height="28.4"/>
	</g>
	<rect x="620.7" y="287.1" class="st6" width="77.3" height="243.2"/>
	<rect x="628.3" y="279.2" class="st23" width="61.8" height="7.9"/>
	<polygon class="st23" points="679,279.2 638.3,279.2 628.3,265.6 689,265.6 	"/>
	<rect x="637.8" y="238.4" class="st23" width="42.9" height="27.1"/>
	<rect x="645.6" y="196.9" class="st23" width="27.1" height="41.5"/>
	<rect x="654.3" y="196.9" class="st23" width="9.4" height="41.5"/>
	<path class="st24" d="M667,196.9c0-0.1,0-0.1,0-0.2c0-23-3.6-41.7-8.1-41.7s-8.1,18.7-8.1,41.7c0,0.1,0,0.1,0,0.2H667z"/>
	<line class="st24" x1="658.8" y1="112.9" x2="658.8" y2="155.1"/>
	<line class="st24" x1="651.6" y1="177.5" x2="666.1" y2="177.5"/>
	<rect x="561.9" y="357.8" class="st6" width="58.7" height="172.4"/>
	<text transform="matrix(1 0 0 1 577.5513 376.7166)" class="st12 st25 st26">&lt; / &gt;</text>
	<text transform="matrix(1 0 0 1 577.5513 396.8965)" class="st12 st25 st26">&lt; / &gt;</text>
	<text transform="matrix(1 0 0 1 577.5513 417.0762)" class="st12 st25 st26">&lt; / &gt;</text>
	<text transform="matrix(1 0 0 1 577.5513 437.2561)" class="st12 st25 st26">&lt; / &gt;</text>
	<text transform="matrix(1 0 0 1 577.5508 457.436)" class="st12 st25 st26">&lt; / &gt;</text>
	<text transform="matrix(1 0 0 1 577.5513 477.6162)" class="st12 st25 st26">&lt; / &gt;</text>
	<text transform="matrix(1 0 0 1 577.5513 497.7961)" class="st12 st25 st26">&lt; / &gt;</text>
	<text transform="matrix(1 0 0 1 577.5513 517.9758)" class="st12 st25 st26">&lt; / &gt;</text>
	<g>
		<rect x="539.6" y="374.2" class="st6" width="22.3" height="115.3"/>
		<rect x="546.3" y="384.6" class="st6" width="9.8" height="9.8"/>
		<rect x="546.3" y="405.3" class="st6" width="9.8" height="9.8"/>
		<rect x="546.3" y="426.1" class="st6" width="9.8" height="9.8"/>
		<rect x="546.3" y="446.8" class="st6" width="9.8" height="9.8"/>
		<rect x="546.3" y="467.6" class="st6" width="9.8" height="9.8"/>
	</g>
	<rect x="571.2" y="343.4" class="st6" width="25.7" height="14.4"/>
	<rect x="1358" y="433.3" class="st17" width="25.7" height="14.4"/>
	<g>
		<path class="st5" d="M222.8,627.2v-11.6c0-5.9-4.8-10.7-10.7-10.7c-5.9,0-10.7,4.8-10.7,10.7v11.6H222.8z"/>
		<path class="st5" d="M251.1,627.2v-11.6c0-5.9-4.8-10.7-10.7-10.7c-5.9,0-10.7,4.8-10.7,10.7v11.6H251.1z"/>
		<path class="st5" d="M279.3,627.2v-11.6c0-5.9-4.8-10.7-10.7-10.7c-5.9,0-10.7,4.8-10.7,10.7v11.6H279.3z"/>
		<path class="st5" d="M307.6,627.2v-11.6c0-5.9-4.8-10.7-10.7-10.7c-5.9,0-10.7,4.8-10.7,10.7v11.6H307.6z"/>
		<path class="st5" d="M335.8,627.2v-11.6c0-5.9-4.8-10.7-10.7-10.7c-5.9,0-10.7,4.8-10.7,10.7v11.6H335.8z"/>
		<path class="st5" d="M364.1,627.2v-11.6c0-5.9-4.8-10.7-10.7-10.7c-5.9,0-10.7,4.8-10.7,10.7v11.6H364.1z"/>
		<path class="st5" d="M392.3,627.2v-11.6c0-5.9-4.8-10.7-10.7-10.7c-5.9,0-10.7,4.8-10.7,10.7v11.6H392.3z"/>
		<path class="st5" d="M420.6,627.2v-11.6c0-5.9-4.8-10.7-10.7-10.7c-5.9,0-10.7,4.8-10.7,10.7v11.6H420.6z"/>
		<path class="st5" d="M448.8,627.2v-11.6c0-5.9-4.8-10.7-10.7-10.7c-5.9,0-10.7,4.8-10.7,10.7v11.6H448.8z"/>
		<path class="st5" d="M477.1,627.2v-11.6c0-5.9-4.8-10.7-10.7-10.7c-5.9,0-10.7,4.8-10.7,10.7v11.6H477.1z"/>
		<path class="st5" d="M505.3,627.2v-11.6c0-5.9-4.8-10.7-10.7-10.7c-5.9,0-10.7,4.8-10.7,10.7v11.6H505.3z"/>
		<path class="st5" d="M533.6,627.2v-11.6c0-5.9-4.8-10.7-10.7-10.7c-5.9,0-10.7,4.8-10.7,10.7v11.6H533.6z"/>
	</g>
	<g>
		<path class="st5" d="M802.6,627.3v-11.6c0-5.9-4.8-10.7-10.7-10.7c-5.9,0-10.7,4.8-10.7,10.7v11.6H802.6z"/>
		<path class="st5" d="M830.9,627.3v-11.6c0-5.9-4.8-10.7-10.7-10.7c-5.9,0-10.7,4.8-10.7,10.7v11.6H830.9z"/>
		<path class="st5" d="M859.1,627.3v-11.6c0-5.9-4.8-10.7-10.7-10.7c-5.9,0-10.7,4.8-10.7,10.7v11.6H859.1z"/>
		<path class="st5" d="M887.4,627.3v-11.6c0-5.9-4.8-10.7-10.7-10.7c-5.9,0-10.7,4.8-10.7,10.7v11.6H887.4z"/>
		<path class="st5" d="M915.6,627.3v-11.6c0-5.9-4.8-10.7-10.7-10.7c-5.9,0-10.7,4.8-10.7,10.7v11.6H915.6z"/>
		<path class="st5" d="M943.9,627.3v-11.6c0-5.9-4.8-10.7-10.7-10.7c-5.9,0-10.7,4.8-10.7,10.7v11.6H943.9z"/>
		<path class="st5" d="M972.1,627.3v-11.6c0-5.9-4.8-10.7-10.7-10.7c-5.9,0-10.7,4.8-10.7,10.7v11.6H972.1z"/>
		<path class="st5" d="M1000.4,627.3v-11.6c0-5.9-4.8-10.7-10.7-10.7c-5.9,0-10.7,4.8-10.7,10.7v11.6H1000.4z"/>
		<path class="st5" d="M1028.6,627.3v-11.6c0-5.9-4.8-10.7-10.7-10.7c-5.9,0-10.7,4.8-10.7,10.7v11.6H1028.6z"/>
		<path class="st5" d="M1056.9,627.3v-11.6c0-5.9-4.8-10.7-10.7-10.7c-5.9,0-10.7,4.8-10.7,10.7v11.6H1056.9z"/>
		<path class="st5" d="M1085.1,627.3v-11.6c0-5.9-4.8-10.7-10.7-10.7c-5.9,0-10.7,4.8-10.7,10.7v11.6H1085.1z"/>
		<path class="st5" d="M1113.4,627.3v-11.6c0-5.9-4.8-10.7-10.7-10.7c-5.9,0-10.7,4.8-10.7,10.7v11.6H1113.4z"/>
	</g>
	<g>
		<path class="st12" d="M626.2,582.1c2.7,0,4.9,0.6,6.5,2c1.6,1.3,2.4,3.2,2.4,5.5c0,1.7-0.5,3.2-1.5,4.4c-1,1.2-2.2,2-3.7,2.4
			c2,0.3,3.5,1.1,4.7,2.4c1.1,1.3,1.7,2.9,1.7,5c0,2.9-1.1,5-3.1,6.4c-1.8,1.2-4.2,1.8-7.1,1.8H613v-30H626.2z M615.6,595.5h10.1
			c2.1,0,3.8-0.5,5-1.4c1.2-1,1.8-2.4,1.8-4.2c0-1.8-0.6-3.3-1.8-4.2c-1.2-0.9-2.9-1.3-5-1.3h-10.1V595.5z M615.6,609.9H626
			c2.2,0,4-0.5,5.4-1.3c1.6-1.1,2.4-2.6,2.4-4.7c0-2.1-0.8-3.6-2.2-4.6c-1.4-1-3.2-1.5-5.6-1.5h-10.4V609.9z"/>
		<path class="st12" d="M656.7,592.3c1.3,1.4,1.9,3.3,1.9,5.8v14h-2.4V608c-0.9,1.3-2.1,2.4-3.5,3.2c-1.8,1-3.7,1.6-5.7,1.6
			c-2.1,0-3.8-0.5-5.1-1.6c-1.4-1.1-2.1-2.6-2.1-4.3c0-2.5,1-4.4,3.1-5.5c1.8-1.1,4.3-1.7,7.6-1.7l5.5-0.1v-1.3
			c0-4.1-2.1-6.2-6.3-6.2c-1.8,0-3.2,0.3-4.3,1.1c-1.3,0.8-2.1,1.9-2.4,3.4l-2.5-0.2c0.4-2.2,1.5-3.9,3.3-5c1.6-1.1,3.6-1.6,6-1.6
			C653,589.8,655.2,590.6,656.7,592.3z M650.7,601.5c-5.5,0-8.2,1.8-8.2,5.3c0,1.2,0.5,2.1,1.4,2.8c0.9,0.7,2.2,1.1,3.7,1.1
			c2.2,0,4.2-0.8,6-2.3c1.7-1.4,2.6-3,2.6-4.7v-2.3L650.7,601.5z"/>
		<path class="st12" d="M679.9,592.3c1.3,1.4,1.9,3.3,1.9,5.8v14h-2.4V608c-0.9,1.3-2.1,2.4-3.5,3.2c-1.8,1-3.7,1.6-5.7,1.6
			c-2.1,0-3.8-0.5-5.1-1.6c-1.4-1.1-2.1-2.6-2.1-4.3c0-2.5,1-4.4,3.1-5.5c1.8-1.1,4.3-1.7,7.6-1.7l5.5-0.1v-1.3
			c0-4.1-2.1-6.2-6.3-6.2c-1.8,0-3.2,0.3-4.3,1.1c-1.3,0.8-2.1,1.9-2.4,3.4l-2.5-0.2c0.4-2.2,1.5-3.9,3.3-5c1.6-1.1,3.6-1.6,6-1.6
			C676.1,589.8,678.4,590.6,679.9,592.3z M673.9,601.5c-5.5,0-8.2,1.8-8.2,5.3c0,1.2,0.5,2.1,1.4,2.8c0.9,0.7,2.2,1.1,3.7,1.1
			c2.2,0,4.2-0.8,6-2.3c1.7-1.4,2.6-3,2.6-4.7v-2.3L673.9,601.5z"/>
		<path class="st12" d="M705.1,583.9c2,1.6,3.1,3.9,3.4,7.1h-2.6c-0.3-2.4-1.2-4.1-2.6-5.3s-3.4-1.8-6-1.8c-2.4,0-4.3,0.4-5.7,1.3
			c-1.6,0.9-2.4,2.4-2.4,4.2c0,1.7,0.9,3,2.8,4c0.9,0.4,2.8,1.1,5.8,1.9c3.8,1.1,6.4,2,7.7,2.9c2.5,1.5,3.7,3.6,3.7,6.3
			c0,2.6-1.1,4.6-3.2,6.1c-2.1,1.4-4.8,2.1-8.2,2.1c-3.4,0-6.2-0.8-8.1-2.4c-2.3-1.8-3.5-4.5-3.8-8.1h2.5c0.3,2.8,1.3,4.9,2.9,6.3
			c1.5,1.2,3.7,1.8,6.4,1.8c2.6,0,4.8-0.5,6.4-1.6c1.6-1.1,2.4-2.5,2.4-4.2c0-2.1-1-3.7-3.1-4.8c-1-0.6-3.2-1.4-6.6-2.3
			c-3.6-1-5.9-1.8-6.9-2.4c-2.3-1.3-3.4-3.2-3.4-5.6c0-2.6,1-4.6,3.2-6c1.9-1.3,4.5-1.9,7.5-1.9
			C700.6,581.5,703.2,582.3,705.1,583.9z"/>
	</g>
	<rect x="583.8" y="571.4" class="st6" width="153" height="49.2"/>
	<rect x="545.6" y="571.4" class="st6" width="32.9" height="12.8"/>
	<rect x="545.6" y="591.3" class="st6" width="32.9" height="12.8"/>
	<rect x="742.4" y="571.4" class="st6" width="32.9" height="12.8"/>
	<rect x="742.4" y="591.3" class="st6" width="32.9" height="12.8"/>
	<line class="st6" x1="85.7" y1="435.4" x2="124.2" y2="435.4"/>
</g>
</svg>
